<svg width="97" height="52" xmlns="http://www.w3.org/2000/svg" xmlns:xlink="http://www.w3.org/1999/xlink" overflow="hidden"><defs><clipPath id="clip0"><path d="M248 107 345 107 345 159 248 159Z" fill-rule="evenodd" clip-rule="evenodd"/></clipPath></defs><g clip-path="url(#clip0)" transform="translate(-248 -107)"><path d="M313.686 148C323.052 140.188 323.533 127.271 314.646 118.938 324.133 123.208 331.939 129.771 336.502 134.146 331.699 138.208 323.533 144.25 313.686 148ZM266.491 126.542C270.454 123.625 274.657 121.125 279.22 119.042 270.454 127.375 270.934 140.188 280.301 148 270.454 144.25 262.168 138.208 257.484 134.146 260.247 131.438 263.249 128.937 266.491 126.542L266.491 126.542ZM296.993 149.667C286.426 149.667 277.779 142.167 277.779 133 277.779 123.833 286.426 116.333 296.993 116.333 307.561 116.333 316.208 123.833 316.208 133 316.208 142.167 307.561 149.667 296.993 149.667ZM343.708 131.229C336.742 124.146 318.489 108 296.993 108 275.498 108 257.244 124.146 250.279 131.229 248.478 133.104 248.598 135.708 250.519 137.479 257.605 143.938 275.738 158 296.993 158 318.249 158 336.382 143.938 343.588 137.479 345.389 135.813 345.509 133.104 343.708 131.229Z" fill-rule="evenodd"/><path d="M309 133C309 138.523 303.627 143 297 143 290.373 143 285 138.523 285 133 285 127.477 290.373 123 297 123 303.627 123 309 127.477 309 133Z" fill-rule="evenodd"/></g></svg>